<mxfile host="app.diagrams.net" modified="2022-03-13T04:14:25.251Z" agent="5.0 (Windows NT 10.0; Win64; x64) AppleWebKit/537.36 (KHTML, like Gecko) Chrome/98.0.4758.102 Safari/537.36" etag="e5j-E-g84VAMQEJ7u7fL" version="17.1.2" type="github">
  <diagram id="JQYZDskgPdvXT17lg50Z" name="第 1 页">
    <mxGraphModel dx="1248" dy="706" grid="1" gridSize="10" guides="1" tooltips="1" connect="1" arrows="1" fold="1" page="1" pageScale="1" pageWidth="827" pageHeight="1169" math="0" shadow="0">
      <root>
        <mxCell id="0" />
        <mxCell id="1" parent="0" />
        <mxCell id="HsGlE3uBkZbR8r2PtUmq-2" value="" style="ellipse;fillColor=#ffffff;strokeColor=#000000;" vertex="1" parent="1">
          <mxGeometry x="180" y="150" width="30" height="30" as="geometry" />
        </mxCell>
        <mxCell id="HsGlE3uBkZbR8r2PtUmq-4" value="" style="ellipse;fillColor=#ffffff;strokeColor=#000000;" vertex="1" parent="1">
          <mxGeometry x="290" y="150" width="30" height="30" as="geometry" />
        </mxCell>
      </root>
    </mxGraphModel>
  </diagram>
</mxfile>
